<svg xmlns="http://www.w3.org/2000/svg" width="27.007" height="24" viewBox="0 0 27.007 24"><defs><style>.a{fill:#fff;}</style></defs><g transform="translate(-129 -159.026)"><path class="a" d="M455.66,161.121a5.3,5.3,0,0,0-3.692-2.051,4.863,4.863,0,0,0-2.917.5,5.44,5.44,0,0,0-2.051,1.6,8.323,8.323,0,0,1,2.735,7.11,7.083,7.083,0,0,1-.182.957l-.091.5.41.137a5.4,5.4,0,0,0,4.968-1,5.349,5.349,0,0,0,2.005-3.692A5.273,5.273,0,0,0,455.66,161.121Z" transform="translate(-303.937)"/><path class="a" d="M466.276,422.048a8.09,8.09,0,0,1-.912-.182,5.69,5.69,0,0,1-.365.547,7.217,7.217,0,0,1,3.555,2.142,6.744,6.744,0,0,1,1.778,4.421v1.413h6.791v-4.695a4.608,4.608,0,0,0-1.367-3.327A4.533,4.533,0,0,0,472.429,421H472.2a8.361,8.361,0,0,1-2.1.82,8.575,8.575,0,0,1-2.416.319A7.133,7.133,0,0,1,466.276,422.048Z" transform="translate(-321.117 -250.417)"/><circle class="a" cx="6.016" cy="6.016" r="6.016" transform="translate(132.464 160.802)"/><path class="a" d="M133.922,487h-.228A4.746,4.746,0,0,0,129,491.74v4.695h18.961V491.74a4.827,4.827,0,0,0-4.74-4.74h-.228a7.036,7.036,0,0,1-2.1.866,9.3,9.3,0,0,1-4.831,0A7.3,7.3,0,0,1,133.922,487Z" transform="translate(0 -313.409)"/></g></svg>