<svg xmlns="http://www.w3.org/2000/svg" width="18" height="24" viewBox="0 0 18 24"><defs><style>.a{fill:#fff;}</style></defs><g transform="translate(-8)"><g transform="translate(8)"><path class="a" d="M17.41,41.136V37.812a2.681,2.681,0,1,0,3.324,3.324H17.41Z" transform="translate(-12.675 -23.632)"/><path class="a" d="M26,21.25V0H8V24H23.25Zm-2.67.08h1.848L23.33,23.178Zm-9.844-1.146a3.43,3.43,0,1,1,0-6.861v3.431h3.431A3.43,3.43,0,0,1,13.486,20.184Zm.6-4.029v-3.43a3.431,3.431,0,0,1,3.431,3.43Zm4.939,3.473H18.5V18.42h.525Zm1.059,0h-.525V15.619h.525Zm1.059,0h-.525V13.582h.525ZM19.408,8.355a1.188,1.188,0,1,1-1.545-.019L16.049,5.952a1.175,1.175,0,0,1-1.383-.03L12.686,8.355a1.238,1.238,0,1,1-.47-.254l2.107-2.587a1.175,1.175,0,0,1-.135-.538,1.188,1.188,0,1,1,2.376,0,1.173,1.173,0,0,1-.158.581l1.931,2.537a1.074,1.074,0,0,1,.6.009l2.107-2.588a1.174,1.174,0,0,1-.135-.538,1.2,1.2,0,1,1,.478.948ZM22.2,19.627h-.525V15.491H22.2Zm.534-2.19h.525v2.19h-.525Z" transform="translate(-8)"/></g></g></svg>