<svg xmlns="http://www.w3.org/2000/svg" width="24" height="23.756" viewBox="0 0 24 23.756"><defs><style>.a{fill:#fff;}</style></defs><g transform="translate(-11.035 -13.27)"><path class="a" d="M12.984,26.764l4.154,1.175a.38.38,0,0,1,.228.552l-.553,1a.383.383,0,0,0,.079.47l2.665,2.388a.375.375,0,0,0,.465.032l1.027-.7a.377.377,0,0,1,.588.26l.553,3.934a.38.38,0,0,0,.645.216l3.414-3.442a.284.284,0,0,1,.06-.048,1.822,1.822,0,0,0,.588-2.213c-.006-.016-.013-.035-.019-.051l-.585-1.283a.383.383,0,0,1,.2-.508,16.355,16.355,0,0,0,8.6-9.782A24.741,24.741,0,0,0,36.282,13.7a.378.378,0,0,0-.386-.425c-1.881.038-9.5.768-15.135,9.738a.378.378,0,0,1-.487.143L18.146,22.1s-.569-.492-1.881.7l-3.439,3.318A.384.384,0,0,0,12.984,26.764Zm16-8a1.6,1.6,0,1,1,1.189,2.169A1.614,1.614,0,0,1,28.989,18.759Z" transform="translate(-1.25)"/><path class="a" d="M11.543,70.411a.505.505,0,0,0,.358-.15l2.33-2.33a.507.507,0,0,0-.718-.718l-2.33,2.33a.508.508,0,0,0,0,.718A.516.516,0,0,0,11.543,70.411Z" transform="translate(0 -35.538)"/><path class="a" d="M22.014,75.7l-2.33,2.33a.507.507,0,1,0,.715.718l2.33-2.33a.507.507,0,0,0-.715-.718Z" transform="translate(-6.345 -41.875)"/><path class="a" d="M11.551,75.729a.505.505,0,0,0,.358-.15l3.406-3.408a.507.507,0,1,0-.718-.718l-3.4,3.408a.508.508,0,0,0,.358.867Z" transform="translate(-0.007 -38.703)"/></g></svg>