<svg xmlns="http://www.w3.org/2000/svg" width="11.008" height="14.809" viewBox="0 0 11.008 14.809"><defs><style>.a{fill:rgba(0,0,0,0.6);}</style></defs><g transform="translate(-2240.47 -1053)"><path class="a" d="M22.593,44.2a4.616,4.616,0,0,0-1.788,1.1,4.615,4.615,0,0,0,1.788,1.1,1.772,1.772,0,0,1,0-2.2Z" transform="translate(2221.984 1018.265)"/><path class="a" d="M30.537,43.189c-.049,0-.1-.007-.145-.007s-.1.006-.145.007a1.333,1.333,0,0,0,0,2.649c.049,0,.1.007.145.007s.1-.006.145-.007a1.333,1.333,0,0,0,0-2.649ZM30.5,44.7h-.211a.224.224,0,1,1,0-.449H30.5a.224.224,0,1,1,0,.449Z" transform="translate(2215.582 1019.058)"/><path class="a" d="M41.611,45.307a1.772,1.772,0,0,1-.385,1.1,4.615,4.615,0,0,0,1.788-1.1,4.616,4.616,0,0,0-1.788-1.1A1.771,1.771,0,0,1,41.611,45.307Z" transform="translate(2206.144 1018.265)"/><path class="a" d="M10.47,2.224v14.36a.225.225,0,0,0,.224.224H21.253a.225.225,0,0,0,.224-.224V5.331H18.4a.224.224,0,0,1-.224-.224V2H10.694A.225.225,0,0,0,10.47,2.224Zm9.166,10.5a4.972,4.972,0,0,1-3.617,1.627l-.045,0-.045,0a4.972,4.972,0,0,1-3.617-1.627.225.225,0,0,1,0-.306,4.972,4.972,0,0,1,3.617-1.626l.045,0,.045,0a4.972,4.972,0,0,1,3.617,1.626A.225.225,0,0,1,19.636,12.725ZM11.962,4.112H16.4a.224.224,0,0,1,0,.449H11.962a.224.224,0,0,1,0-.449Zm0,1.689h5.279a.224.224,0,1,1,0,.449H11.962a.224.224,0,0,1,0-.449Zm0,1.689h8.1a.224.224,0,1,1,0,.449h-8.1a.224.224,0,0,1,0-.449Z" transform="translate(2230 1051)"/><path class="a" d="M46.8,5.338h2.727L46.8,2.588Z" transform="translate(2201.825 1050.544)"/></g></svg>