<svg xmlns="http://www.w3.org/2000/svg" width="45.305" height="45" viewBox="0 0 45.305 45">
  <g id="Digital" transform="translate(-1155 -645)">
    <g id="Group_656" data-name="Group 656" transform="translate(1155 647.212)">
      <path id="Path_101" data-name="Path 101" d="M38.6,48.846h7.646V41.2H38.6Zm1.519-6.127h4.607v4.607H40.119Z" transform="translate(-19.399 -21.52)" fill="#d3d3d3"/>
      <path id="Path_102" data-name="Path 102" d="M79.857,44.6a2.157,2.157,0,1,0,2.157,2.157A2.176,2.176,0,0,0,79.857,44.6Zm0,2.794a.637.637,0,1,1,.637-.637A.649.649,0,0,1,79.857,47.394Z" transform="translate(-36.708 -23.303)" fill="#d3d3d3"/>
      <path id="Path_103" data-name="Path 103" d="M37.208,16.239h3.836A2.393,2.393,0,0,0,43.356,17.8a2.446,2.446,0,1,0-2.313-3.335H37.208a1.585,1.585,0,0,0-2.877.889,1.545,1.545,0,0,0,.677,1.279v2.724H29.48V16.628a1.545,1.545,0,0,0,.677-1.279,1.58,1.58,0,0,0-3.159,0,1.545,1.545,0,0,0,.677,1.279v2.724H22.147V16.628a1.546,1.546,0,0,0,0-2.557V11.625a2.361,2.361,0,0,0,1.579-2.279,2.482,2.482,0,0,0-4.964,0,2.438,2.438,0,0,0,1.579,2.279v2.446a1.546,1.546,0,0,0,0,2.557v2.724H17.127v2.891H14.589a1.6,1.6,0,0,0-2.595,0H6.636v3A2.41,2.41,0,0,0,5,27.524a2.482,2.482,0,0,0,4.964,0,2.438,2.438,0,0,0-1.579-2.279V24.021h3.666a1.6,1.6,0,0,0,2.595,0h2.538v5.448H14.645a1.585,1.585,0,0,0-2.877.889,1.531,1.531,0,0,0,1.579,1.556,1.58,1.58,0,0,0,1.3-.667h2.538V36.7H14.645a1.6,1.6,0,0,0-2.595,0H9.794a2.393,2.393,0,0,0-2.313-1.556A2.37,2.37,0,0,0,5,37.53a2.488,2.488,0,0,0,4.794.889h2.256a1.6,1.6,0,0,0,2.595,0h2.538V41.2H20.4v2.724a.437.437,0,0,0-.226.222H15.661a2.393,2.393,0,0,0-2.313-1.557,2.446,2.446,0,1,0,2.313,3.335h4.23a1.573,1.573,0,0,0,2.989-.667,1.545,1.545,0,0,0-.677-1.279V41.254h5.528v2.724a1.545,1.545,0,0,0-.677,1.279,1.565,1.565,0,0,0,1.579,1.556,1.553,1.553,0,0,0,.9-2.835V41.254h5.528v2.724a1.545,1.545,0,0,0-.677,1.279,1.565,1.565,0,0,0,1.579,1.556,1.553,1.553,0,0,0,.9-2.835V41.254a2.7,2.7,0,0,0,2.707-2.724v-.056h2.538a1.308,1.308,0,0,0,.395.389v3.891a2.361,2.361,0,0,0-1.579,2.279,2.482,2.482,0,0,0,4.964,0,2.437,2.437,0,0,0-1.579-2.279V38.864a1.545,1.545,0,0,0,.677-1.279,1.585,1.585,0,0,0-2.877-.889H39.577V31.248h2.538a1.585,1.585,0,0,0,2.877-.889A1.531,1.531,0,0,0,43.412,28.8a1.58,1.58,0,0,0-1.3.667H39.577V24.021h2.538a1.585,1.585,0,0,0,2.877-.889,1.531,1.531,0,0,0-1.579-1.556,1.58,1.58,0,0,0-1.3.667H39.577V19.352H36.869V16.628C36.926,16.517,37.095,16.406,37.208,16.239ZM21.3,8.679a.741.741,0,0,1,.733.723.681.681,0,0,1-.282.556,1.057,1.057,0,0,0-.395-.111.824.824,0,0,0-.395.111.681.681,0,0,1-.282-.556A.593.593,0,0,1,21.3,8.679ZM7.482,28.191a.723.723,0,1,1,.733-.723A.706.706,0,0,1,7.482,28.191Zm0,10.006a.723.723,0,1,1,.733-.723A.741.741,0,0,1,7.482,38.2Zm5.866,7.449a.723.723,0,1,1,.733-.723A.706.706,0,0,1,13.348,45.646Zm30.008,0a.723.723,0,1,1,.733-.723A.741.741,0,0,1,43.356,45.646Zm-5.641-7.227a1,1,0,0,1-1.015,1H18.989V21.075H37.715Zm5.641-23.792a.723.723,0,1,1-.733.723A.706.706,0,0,1,43.356,14.627Z" transform="translate(-5 -6.9)" fill="#d3d3d3"/>
    </g>
    <g id="invisible_box" data-name="invisible box" transform="translate(1155 645)">
      <rect id="Rectangle_38" data-name="Rectangle 38" width="45" height="45" fill="none"/>
    </g>
  </g>
</svg>
