<svg xmlns="http://www.w3.org/2000/svg" xmlns:xlink="http://www.w3.org/1999/xlink" version="1.1" x="0px" y="0px" viewBox="0 0 91 113.75" style="enable-background:new 0 0 91 91;" xml:space="preserve"><g><path d="M38.6,56.8h15.6V41.2H38.6V56.8z M41.7,44.3h9.4v9.4h-9.4V44.3z"/><path d="M82.1,44.6c-2.4,0-4.4,2-4.4,4.4s2,4.4,4.4,4.4s4.4-2,4.4-4.4S84.5,44.6,82.1,44.6z M82.1,50.3c-0.7,0-1.3-0.6-1.3-1.3   s0.6-1.3,1.3-1.3c0.7,0,1.3,0.6,1.3,1.3S82.8,50.3,82.1,50.3z"/><path d="M62.1,23.7h6.8c0.6,1.7,2.2,2.8,4.1,2.8c2.4,0,4.4-2,4.4-4.4s-2-4.4-4.4-4.4c-1.9,0-3.5,1.2-4.1,2.8h-6.8   c-0.5-0.7-1.3-1.2-2.3-1.2c-1.5,0-2.8,1.2-2.8,2.8c0,1,0.5,1.8,1.2,2.3v4.9h-9.8v-4.9c0.7-0.5,1.2-1.3,1.2-2.3   c0-1.5-1.2-2.8-2.8-2.8S44,20.6,44,22.1c0,1,0.5,1.8,1.2,2.3v4.9h-9.8v-4.9c0.7-0.5,1.2-1.3,1.2-2.3c0-1-0.5-1.8-1.2-2.3v-4.4   c1.7-0.6,2.8-2.2,2.8-4.1c0-2.4-2-4.4-4.4-4.4s-4.4,2-4.4,4.4c0,1.9,1.2,3.5,2.8,4.1v4.4c-0.7,0.5-1.2,1.3-1.2,2.3   c0,1,0.5,1.8,1.2,2.3v4.9h-5.7v5.2h-4.5c-0.5-0.7-1.3-1.2-2.3-1.2c-1,0-1.8,0.5-2.3,1.2H7.9v5.4C6.2,40.5,5,42.1,5,44   c0,2.4,2,4.4,4.4,4.4s4.4-2,4.4-4.4c0-1.9-1.2-3.5-2.8-4.1v-2.2h6.5c0.5,0.7,1.3,1.2,2.3,1.2c1,0,1.8-0.5,2.3-1.2h4.5v9.8h-4.5   c-0.5-0.7-1.3-1.2-2.3-1.2c-1.5,0-2.8,1.2-2.8,2.8s1.2,2.8,2.8,2.8c1,0,1.8-0.5,2.3-1.2h4.5v9.8h-4.5c-0.5-0.7-1.3-1.2-2.3-1.2   c-1,0-1.8,0.5-2.3,1.2h-4c-0.6-1.7-2.2-2.8-4.1-2.8C7,57.6,5,59.5,5,62s2,4.4,4.4,4.4c1.9,0,3.5-1.2,4.1-2.8h4   c0.5,0.7,1.3,1.2,2.3,1.2c1,0,1.8-0.5,2.3-1.2h4.5v5h5.7v4.9c-0.2,0.1-0.3,0.2-0.4,0.4h-8c-0.6-1.7-2.2-2.8-4.1-2.8   c-2.4,0-4.4,2-4.4,4.4s2,4.4,4.4,4.4c1.9,0,3.5-1.2,4.1-2.8h7.5c0.4,0.9,1.4,1.6,2.5,1.6c1.5,0,2.8-1.2,2.8-2.8   c0-1-0.5-1.8-1.2-2.3v-4.9h9.8v4.9c-0.7,0.5-1.2,1.3-1.2,2.3c0,1.5,1.2,2.8,2.8,2.8s2.8-1.2,2.8-2.8c0-1-0.5-1.8-1.2-2.3v-4.9h9.8   v4.9c-0.7,0.5-1.2,1.3-1.2,2.3c0,1.5,1.2,2.8,2.8,2.8s2.8-1.2,2.8-2.8c0-1-0.5-1.8-1.2-2.3v-4.9c2.7,0,4.8-2.2,4.8-4.9v-0.1h4.5   c0.2,0.3,0.4,0.5,0.7,0.7v7c-1.7,0.6-2.8,2.2-2.8,4.1c0,2.4,2,4.4,4.4,4.4s4.4-2,4.4-4.4c0-1.9-1.2-3.5-2.8-4.1v-7   c0.7-0.5,1.2-1.3,1.2-2.3c0-1.5-1.2-2.8-2.8-2.8c-1,0-1.8,0.5-2.3,1.2h-4.5v-9.8h4.5c0.5,0.7,1.3,1.2,2.3,1.2   c1.5,0,2.8-1.2,2.8-2.8s-1.2-2.8-2.8-2.8c-1,0-1.8,0.5-2.3,1.2h-4.5v-9.8h4.5c0.5,0.7,1.3,1.2,2.3,1.2c1.5,0,2.8-1.2,2.8-2.8   s-1.2-2.8-2.8-2.8c-1,0-1.8,0.5-2.3,1.2h-4.5v-5.2h-4.8v-4.9C61.6,24.2,61.9,24,62.1,23.7z M33.9,10.1c0.7,0,1.3,0.6,1.3,1.3   c0,0.4-0.2,0.8-0.5,1c-0.2-0.1-0.5-0.2-0.7-0.2c-0.3,0-0.5,0.1-0.7,0.2c-0.3-0.2-0.5-0.6-0.5-1C32.6,10.7,33.2,10.1,33.9,10.1z    M9.4,45.2c-0.7,0-1.3-0.6-1.3-1.3c0-0.7,0.6-1.3,1.3-1.3c0.7,0,1.3,0.6,1.3,1.3C10.7,44.7,10.1,45.2,9.4,45.2z M9.4,63.2   c-0.7,0-1.3-0.6-1.3-1.3s0.6-1.3,1.3-1.3c0.7,0,1.3,0.6,1.3,1.3S10.1,63.2,9.4,63.2z M19.8,76.6c-0.7,0-1.3-0.6-1.3-1.3   c0-0.7,0.6-1.3,1.3-1.3c0.7,0,1.3,0.6,1.3,1.3C21.1,76.1,20.5,76.6,19.8,76.6z M73,76.6c-0.7,0-1.3-0.6-1.3-1.3   c0-0.7,0.6-1.3,1.3-1.3c0.7,0,1.3,0.6,1.3,1.3C74.2,76.1,73.7,76.6,73,76.6z M63,63.6c0,1-0.8,1.8-1.8,1.8H29.8V32.4H63V63.6z    M73,20.8c0.7,0,1.3,0.6,1.3,1.3s-0.6,1.3-1.3,1.3c-0.7,0-1.3-0.6-1.3-1.3S72.2,20.8,73,20.8z"/></g><text x="0" y="106" fill="#000000" font-size="5px" font-weight="bold" font-family="'Helvetica Neue', Helvetica, Arial-Unicode, Arial, Sans-serif">Created by BomSymbols</text><text x="0" y="111" fill="#000000" font-size="5px" font-weight="bold" font-family="'Helvetica Neue', Helvetica, Arial-Unicode, Arial, Sans-serif">from the Noun Project</text></svg>