<svg id="Layer_2" data-name="Layer 2" xmlns="http://www.w3.org/2000/svg" width="45" height="45" viewBox="0 0 45 45">
  <g id="invisible_box" data-name="invisible box">
    <rect id="Rectangle_36" data-name="Rectangle 36" width="45" height="45" fill="none"/>
  </g>
  <g id="icons_Q2" data-name="icons Q2" transform="translate(3.133 8.76)">
    <path id="Path_87" data-name="Path 87" d="M34.023,23.512l-4.405-3.795a2.024,2.024,0,0,0-2.562-.039,1.413,1.413,0,0,0-.045,2.207l1.439,1.239H22.785l-7.642-6.66a2.121,2.121,0,0,0-2.427-.155,1.445,1.445,0,0,0-.752,1.124,1.379,1.379,0,0,0,.572,1.2l6.833,5.886L12.535,30.4a1.379,1.379,0,0,0-.572,1.2,1.445,1.445,0,0,0,.752,1.124,2.121,2.121,0,0,0,2.427-.155l7.372-6.35h5.934L27.01,27.462a1.366,1.366,0,0,0-.53,1.219,1.465,1.465,0,0,0,.8,1.1,2.013,2.013,0,0,0,2.338-.232l4.405-3.795a1.468,1.468,0,0,0,0-2.246Z" transform="translate(-3.005 -8.999)" fill="#d3d3d3"/>
    <path id="Path_88" data-name="Path 88" d="M41.559,12.2V32.33a1.688,1.688,0,0,1-1.8,1.549H21.779a1.688,1.688,0,0,1-1.8-1.549h0a1.688,1.688,0,0,1,1.8-1.549H37.963V13.744H22.948l-.989-.929L17.554,9.1H5.6V32.33a1.688,1.688,0,0,1-1.8,1.549h0A1.688,1.688,0,0,1,2,32.33V7.549A1.688,1.688,0,0,1,3.8,6H19.082l5.394,4.647H39.761A1.688,1.688,0,0,1,41.559,12.2Z" transform="translate(-2 -6)" fill="#d3d3d3"/>
  </g>
</svg>
